<svg xmlns="http://www.w3.org/2000/svg" xmlns:xlink="http://www.w3.org/1999/xlink" version="1.1" x="0px" y="0px" viewBox="0 0 100 125" enable-background="new 0 0 100 100" xml:space="preserve"><path fill="#000000" d="M63.369,57.863l1.898-15.82c-0.035-6.568-5.214-11.927-11.705-12.279V15.101h-1.125  c-1.64,0-3.62-1.6-3.62-3.73c0-2.084,1.813-3.731,3.959-3.731c2.15,0,3.9,1.726,3.9,3.845c0,0.113,0.014,0.209,0.028,0.285  l-0.059,1.081h5.42l1.055-0.104l0.074-1.046c0.004-0.071,0.009-0.142,0.009-0.214c0-5.688-4.628-10.316-10.315-10.316  c-5.688,0-10.315,4.628-10.315,10.316c0,3.295,2.013,6.624,5.18,8.644l-0.022,9.745c-5.96,0.866-10.564,5.98-10.597,12.17  l0.951,7.943h8.726v2.25h-8.455l1.703,14.232V65.74h18.006v2.251H40.241l0.269,2.251c0,1.104,0.063,2.248,0.214,3.376h11.713v2.251  H41.173c0.799,2.961,2.457,5.494,5.638,6.396v8.233h-9.002v6.752H63.69v-6.752H53.563v-7.917c6.849-0.405,8.329-6.87,8.329-12.339  l0.008-0.135l1.2-9.993H45.686v-2.251H63.369z M44.824,11.485c0-4.447,3.618-8.065,8.065-8.065c4.133,0,7.548,3.125,8.009,7.18  h-2.034c-0.435-2.943-2.998-5.21-6.087-5.21c-3.424,0-6.209,2.734-6.209,6.096c0,3.02,2.323,5.379,4.746,5.958v11.161h-1.328  l0.022-9.77l-0.574-0.323C47.306,17.314,44.824,14.754,44.824,11.485z M45.686,43.234v-2.25h16.88v2.25H45.686z M49.062,83.746  h2.251v6.752h-2.251V83.746z M61.44,92.749V95H40.059v-2.251h6.752h6.752H61.44z"/><path fill="#000000" d="M73.018,16.657l-1.403,1.76c0.366,0.298,3.475,3.048-0.175,7.608c-3.998,4.998-1.755,10.58-0.011,12.833  l1.782-1.375c-0.161-0.211-3.892-5.205-0.013-10.052c1.698-2.125,2.44-4.255,2.204-6.333C75.087,18.324,73.102,16.724,73.018,16.657  z"/><path fill="#000000" d="M69.775,13.221c-0.315-2.775-2.301-4.375-2.385-4.442l-1.403,1.761c0.366,0.298,3.476,3.047-0.175,7.608  c-3.998,4.998-1.755,10.58-0.011,12.833l1.782-1.375c-0.161-0.211-3.891-5.205-0.013-10.052  C69.271,17.43,70.012,15.299,69.775,13.221z"/><path fill="#000000" d="M29.789,37.484l0.892,0.686l0.89,0.689c1.744-2.254,3.987-7.835-0.011-12.833  c-3.65-4.561-0.541-7.311-0.18-7.604l-1.398-1.765c-0.083,0.067-2.069,1.667-2.385,4.442c-0.236,2.078,0.505,4.209,2.205,6.333  C33.68,32.279,29.95,37.273,29.789,37.484z"/><path fill="#000000" d="M35.429,19.555c3.878,4.848,0.148,9.841-0.013,10.052l0.893,0.686l0.89,0.689  c1.744-2.254,3.987-7.835-0.011-12.833c-3.649-4.561-0.541-7.31-0.18-7.604l-1.398-1.765c-0.083,0.067-2.069,1.667-2.385,4.442  C32.988,15.299,33.73,17.43,35.429,19.555z"/><text x="0" y="115" fill="#000000" font-size="5px" font-weight="bold" font-family="'Helvetica Neue', Helvetica, Arial-Unicode, Arial, Sans-serif">Created by Iconic</text><text x="0" y="120" fill="#000000" font-size="5px" font-weight="bold" font-family="'Helvetica Neue', Helvetica, Arial-Unicode, Arial, Sans-serif">from the Noun Project</text></svg>