<svg xmlns="http://www.w3.org/2000/svg" xmlns:xlink="http://www.w3.org/1999/xlink" version="1.0" x="0px" y="0px" viewBox="0 0 100 100" enable-background="new 0 0 100 100" xml:space="preserve"><g display="none"><circle display="inline" fill="#000000" stroke="#00FFFF" stroke-width="0.1" stroke-miterlimit="10" cx="49.875" cy="50" r="45"/><circle display="inline" fill="#000000" stroke="#00FFFF" stroke-width="0.1" stroke-miterlimit="10" cx="49.875" cy="50" r="25"/></g><path d="M69.977,53.119c-0.789-1.715-0.789-4.522,0-6.238L82.9,18.784c0.787-1.716,0.026-2.481-1.693-1.702l-28.596,12.96  c-1.719,0.78-4.526,0.764-6.238-0.035L18.775,17.118c-1.711-0.799-2.465-0.049-1.676,1.667l12.924,28.097  c0.789,1.716,0.789,4.522,0,6.238L17.1,81.216c-0.79,1.716-0.035,2.466,1.676,1.667l27.598-12.889  c1.711-0.801,4.519-0.814,6.237-0.036l28.597,12.96c1.722,0.779,2.481,0.014,1.692-1.702L69.977,53.119z M50,58.773  c-4.845,0-8.772-3.93-8.772-8.773c0-4.845,3.928-8.773,8.772-8.773c4.846,0,8.773,3.928,8.773,8.773  C58.771,54.846,54.846,58.773,50,58.773z"/></svg>
